<svg xmlns="http://www.w3.org/2000/svg" width="1200" height="675" viewBox="0 0 1200 675">
  <defs>
    <linearGradient id="bg" x1="0" y1="0" x2="1" y2="1">
      <stop offset="0" stop-color="#f8fbf7"/>
      <stop offset=".52" stop-color="#edf6ef"/>
      <stop offset="1" stop-color="#fff4df"/>
    </linearGradient>
    <linearGradient id="green" x1="0" y1="0" x2="1" y2="1">
      <stop offset="0" stop-color="#0f5c49"/>
      <stop offset="1" stop-color="#267a5a"/>
    </linearGradient>
    <filter id="shadow" x="-20%" y="-20%" width="140%" height="140%">
      <feDropShadow dx="0" dy="18" stdDeviation="18" flood-color="#16362f" flood-opacity=".18"/>
    </filter>
  </defs>
  <rect width="1200" height="675" fill="url(#bg)"/>
  <circle cx="1020" cy="90" r="120" fill="#06c755" opacity=".08"/>
  <circle cx="140" cy="585" r="150" fill="#d9a441" opacity=".12"/>

  <rect x="0" y="0" width="1200" height="675" fill="none"/>

  <g transform="translate(72 80)">
    <text x="0" y="0" fill="#0f352c" font-family="system-ui, -apple-system, BlinkMacSystemFont, 'Noto Sans JP', sans-serif" font-size="52" font-weight="900">心まごころ遺品整理</text>
    <text x="0" y="54" fill="#38594f" font-family="system-ui, -apple-system, BlinkMacSystemFont, 'Noto Sans JP', sans-serif" font-size="25" font-weight="800">遺品整理・生前整理・供養・買取</text>
    <rect x="0" y="84" width="410" height="5" rx="2.5" fill="#d9a441"/>
  </g>

  <g transform="translate(702 82)" filter="url(#shadow)">
    <rect x="0" y="0" width="384" height="430" rx="26" fill="#fff"/>
    <rect x="34" y="36" width="316" height="76" rx="14" fill="#ecf4ef"/>
    <text x="58" y="84" fill="#163d34" font-family="system-ui, -apple-system, BlinkMacSystemFont, 'Noto Sans JP', sans-serif" font-size="28" font-weight="900">写真で概算見積</text>
    <g transform="translate(40 150)">
      <circle cx="18" cy="18" r="18" fill="#19aa63"/>
      <path d="M9 18l7 7 13-16" fill="none" stroke="#fff" stroke-width="6" stroke-linecap="round" stroke-linejoin="round"/>
      <text x="54" y="26" fill="#263b45" font-family="system-ui, -apple-system, BlinkMacSystemFont, 'Noto Sans JP', sans-serif" font-size="23" font-weight="800">仕分け・搬出</text>
    </g>
    <g transform="translate(40 215)">
      <circle cx="18" cy="18" r="18" fill="#19aa63"/>
      <path d="M9 18l7 7 13-16" fill="none" stroke="#fff" stroke-width="6" stroke-linecap="round" stroke-linejoin="round"/>
      <text x="54" y="26" fill="#263b45" font-family="system-ui, -apple-system, BlinkMacSystemFont, 'Noto Sans JP', sans-serif" font-size="23" font-weight="800">大切な品の探索</text>
    </g>
    <g transform="translate(40 280)">
      <circle cx="18" cy="18" r="18" fill="#19aa63"/>
      <path d="M9 18l7 7 13-16" fill="none" stroke="#fff" stroke-width="6" stroke-linecap="round" stroke-linejoin="round"/>
      <text x="54" y="26" fill="#263b45" font-family="system-ui, -apple-system, BlinkMacSystemFont, 'Noto Sans JP', sans-serif" font-size="23" font-weight="800">供養・買取も相談</text>
    </g>
    <rect x="46" y="356" width="292" height="48" rx="24" fill="url(#green)"/>
    <text x="192" y="388" text-anchor="middle" fill="#fff" font-family="system-ui, -apple-system, BlinkMacSystemFont, 'Noto Sans JP', sans-serif" font-size="21" font-weight="900">LINEでかんたん相談</text>
  </g>

  <g transform="translate(108 205)" filter="url(#shadow)">
    <rect x="0" y="120" width="372" height="210" rx="18" fill="#f4f0e8"/>
    <rect x="36" y="78" width="300" height="232" rx="18" fill="#fff"/>
    <rect x="68" y="112" width="236" height="118" rx="14" fill="#e9f2ed"/>
    <circle cx="128" cy="152" r="16" fill="#d9a441"/>
    <path d="M82 216l68-52 44 40 42-34 58 46z" fill="#579077"/>
    <rect x="88" y="256" width="198" height="18" rx="9" fill="#d9a441" opacity=".75"/>
  </g>

  <g transform="translate(438 260)" filter="url(#shadow)">
    <path d="M0 130h214v132c0 18-15 33-33 33H33c-18 0-33-15-33-33z" fill="#c88d33"/>
    <path d="M0 130l54-58h106l54 58z" fill="#e0aa52"/>
    <path d="M54 72l53 58 53-58" fill="none" stroke="#8a5a1e" stroke-width="10" stroke-linecap="round" opacity=".55"/>
    <rect x="42" y="160" width="130" height="70" rx="10" fill="#fff" opacity=".24"/>
    <path d="M105 255c-26-19-44-36-44-58 0-14 11-25 25-25 9 0 16 4 19 11 4-7 11-11 20-11 14 0 25 11 25 25 0 22-18 39-45 58z" fill="#fff"/>
  </g>

  <g transform="translate(80 570)">
    <rect x="0" y="0" width="452" height="58" rx="29" fill="#fff" opacity=".82"/>
    <text x="226" y="38" text-anchor="middle" fill="#234d42" font-family="system-ui, -apple-system, BlinkMacSystemFont, 'Noto Sans JP', sans-serif" font-size="25" font-weight="900">片付けではなく、想いを整える仕事です</text>
  </g>
</svg>
