<svg xmlns="http://www.w3.org/2000/svg" width="640" height="640" viewBox="0 0 640 640">
  <defs>
    <linearGradient id="bg" x1="0" y1="0" x2="1" y2="1">
      <stop offset="0" stop-color="#0f5c49"/>
      <stop offset="1" stop-color="#1f7a5b"/>
    </linearGradient>
    <linearGradient id="box" x1="0" y1="0" x2="1" y2="1">
      <stop offset="0" stop-color="#d9a441"/>
      <stop offset="1" stop-color="#b87a22"/>
    </linearGradient>
    <filter id="shadow" x="-20%" y="-20%" width="140%" height="140%">
      <feDropShadow dx="0" dy="18" stdDeviation="18" flood-color="#06251f" flood-opacity=".28"/>
    </filter>
  </defs>
  <rect width="640" height="640" rx="150" fill="url(#bg)"/>
  <circle cx="500" cy="124" r="78" fill="#ffffff" opacity=".1"/>
  <circle cx="118" cy="508" r="116" fill="#d9a441" opacity=".16"/>

  <g filter="url(#shadow)">
    <path d="M180 270h280v192c0 22-18 40-40 40H220c-22 0-40-18-40-40z" fill="url(#box)"/>
    <path d="M180 270l70-74h140l70 74z" fill="#e7b65a"/>
    <path d="M250 196l70 74 70-74" fill="none" stroke="#8b5a19" stroke-width="14" stroke-linecap="round" stroke-linejoin="round" opacity=".55"/>
    <path d="M210 300h220v132H210z" fill="#f8f3e8" opacity=".22"/>
  </g>

  <g fill="none" stroke="#fff" stroke-width="24" stroke-linecap="round" stroke-linejoin="round">
    <path d="M238 278l82-70 82 70"/>
    <path d="M270 260v-54h46"/>
    <path d="M266 284v80h108v-80"/>
  </g>

  <path d="M319 407c-42-30-70-56-70-91 0-22 17-39 39-39 14 0 25 7 31 17 6-10 17-17 31-17 22 0 39 17 39 39 0 35-28 61-70 91z" fill="#fff"/>

  <g fill="#fff8e8">
    <path d="M470 236l14 30 32 5-23 23 5 32-28-15-29 15 6-32-24-23 33-5z"/>
    <path d="M128 216l9 20 21 3-15 15 4 21-19-10-19 10 4-21-15-15 21-3z" opacity=".85"/>
  </g>

  <text x="320" y="555" text-anchor="middle" fill="#fff" font-family="system-ui, -apple-system, BlinkMacSystemFont, 'Noto Sans JP', sans-serif" font-size="62" font-weight="900" letter-spacing="0">遺品整理</text>
</svg>
